<svg width="259" height="85" viewBox="0 0 259 85" fill="none" xmlns="http://www.w3.org/2000/svg">
<path d="M2.12961 29.02C2.90961 29.02 3.29961 29.3883 3.29961 30.125V33.57C5.16294 30.2767 8.06628 28.63 12.0096 28.63C15.2163 28.63 17.9679 29.7783 20.2646 32.075C22.5613 34.3717 23.7096 37.1233 23.7096 40.33V48.26C23.7096 51.38 22.5396 54.1317 20.1996 56.515C17.9029 58.8983 15.2163 60.09 12.1396 60.09C10.2329 60.09 8.45628 59.6133 6.80961 58.66C5.20628 57.7067 4.03628 56.5367 3.29961 55.15V73.935C3.29961 74.2383 3.16961 74.4983 2.90961 74.715C2.69294 74.975 2.43294 75.105 2.12961 75.105C1.82628 75.105 1.56628 74.975 1.34961 74.715C1.13295 74.4983 1.02461 74.2383 1.02461 73.935V30.125C1.02461 29.3883 1.39295 29.02 2.12961 29.02ZM21.4346 48.26V40.33C21.4346 37.9033 20.5029 35.7367 18.6396 33.83C16.8196 31.88 14.6746 30.905 12.2046 30.905C9.86461 30.905 7.78461 31.7717 5.96461 33.505C4.18795 35.2383 3.29961 37.5133 3.29961 40.33V50.665C3.29961 52.0083 4.20961 53.5467 6.02961 55.28C7.84961 56.97 9.92961 57.815 12.2696 57.815C14.6963 57.815 16.8196 56.84 18.6396 54.89C20.5029 52.94 21.4346 50.73 21.4346 48.26ZM33.6074 32.14C35.904 29.8 38.6124 28.63 41.7324 28.63C44.8524 28.63 47.5607 29.7783 49.8574 32.075C52.154 34.3717 53.3024 37.1233 53.3024 40.33V48.26C53.3024 51.38 52.1324 54.1317 49.7924 56.515C47.4957 58.8983 44.809 60.09 41.7324 60.09C38.6557 60.09 35.969 58.8983 33.6724 56.515C31.3757 54.1317 30.2274 51.38 30.2274 48.26V40.33C30.2274 37.21 31.354 34.48 33.6074 32.14ZM51.0274 48.26V40.33C51.0274 37.9033 50.1174 35.7367 48.2974 33.83C46.4774 31.88 44.289 30.905 41.7324 30.905C39.1757 30.905 36.9874 31.88 35.1674 33.83C33.3907 35.7367 32.5024 37.9033 32.5024 40.33V48.26C32.5024 50.73 33.4124 52.94 35.2324 54.89C37.0524 56.84 39.219 57.815 41.7324 57.815C44.2457 57.815 46.4124 56.84 48.2324 54.89C50.0957 52.94 51.0274 50.73 51.0274 48.26ZM62.18 9.78C62.96 9.78 63.35 10.1483 63.35 10.885V58.53C63.35 58.8333 63.22 59.115 62.96 59.375C62.7433 59.5917 62.4833 59.7 62.18 59.7C61.8766 59.7 61.6166 59.5917 61.4 59.375C61.1833 59.115 61.075 58.8333 61.075 58.53V10.885C61.075 10.1483 61.4433 9.78 62.18 9.78ZM91.0628 28.63C91.8428 28.63 92.2328 28.9983 92.2328 29.735C92.2328 29.9083 92.2111 30.0383 92.1678 30.125L81.7678 58.855L80.4678 62.43C80.2078 63.1233 79.7311 64.2717 79.0378 65.875C78.3878 67.4783 77.7811 68.6917 77.2178 69.515C76.6978 70.3383 76.0478 71.2483 75.2678 72.245C74.5311 73.2417 73.7295 73.9567 72.8628 74.39C71.9961 74.8667 71.0861 75.105 70.1328 75.105C69.8295 75.105 69.5695 74.9967 69.3528 74.78C69.1361 74.5633 69.0278 74.3033 69.0278 74C69.0278 73.22 69.3528 72.83 70.0028 72.83C70.7395 72.83 71.4545 72.6567 72.1478 72.31C72.8411 71.9633 73.4911 71.3567 74.0978 70.49C74.7045 69.6667 75.2028 68.93 75.5928 68.28C76.0261 67.63 76.5245 66.59 77.0878 65.16C77.6945 63.73 78.1061 62.7333 78.3228 62.17L79.4928 58.855L69.0928 30.125C69.0061 29.9517 68.9628 29.8217 68.9628 29.735C68.9628 29.4317 69.0711 29.1717 69.2878 28.955C69.5478 28.7383 69.8511 28.63 70.1978 28.63C70.7611 28.63 71.1078 28.8683 71.2378 29.345L80.6628 55.345L90.0228 29.345C90.2395 28.8683 90.5861 28.63 91.0628 28.63Z" fill="#FF005C"/>
<path d="M106.41 30.905C103.94 30.905 102.098 31.555 100.885 32.855C99.6713 34.1117 99.0646 35.4983 99.0646 37.015C99.0646 38.3583 99.6496 39.485 100.82 40.395C101.99 41.305 103.398 42.0633 105.045 42.67C106.735 43.2767 108.403 43.9267 110.05 44.62C111.74 45.27 113.17 46.245 114.34 47.545C115.51 48.845 116.095 50.4483 116.095 52.355C116.095 54.7383 115.228 56.6233 113.495 58.01C111.761 59.3967 109.378 60.09 106.345 60.09C102.921 60.09 100.343 59.3317 98.6096 57.815C96.9196 56.2983 96.0746 54.4567 96.0746 52.29C96.0746 51.25 96.4646 50.73 97.2446 50.73C97.9813 50.73 98.3496 51.2717 98.3496 52.355C98.3496 53.7417 98.9996 54.9983 100.3 56.125C101.6 57.2517 103.593 57.815 106.28 57.815C108.836 57.815 110.721 57.3167 111.935 56.32C113.191 55.28 113.82 53.9583 113.82 52.355C113.82 50.8817 113.235 49.6467 112.065 48.65C110.895 47.61 109.486 46.7867 107.84 46.18L102.77 44.23C101.123 43.5367 99.7146 42.5833 98.5446 41.37C97.3746 40.1567 96.7896 38.6833 96.7896 36.95C96.7896 34.8267 97.5913 32.92 99.1946 31.23C100.841 29.4967 103.203 28.63 106.28 28.63C109.14 28.63 111.371 29.3883 112.975 30.905C114.578 32.3783 115.38 34.2633 115.38 36.56C115.38 37.6867 115.011 38.25 114.275 38.25C113.495 38.25 113.105 37.7083 113.105 36.625C113.018 32.8117 110.786 30.905 106.41 30.905ZM123.062 50.665V15.11C123.062 14.8067 123.171 14.5467 123.387 14.33C123.647 14.1133 123.907 14.005 124.167 14.005C124.471 14.005 124.731 14.1133 124.947 14.33C125.207 14.5467 125.337 14.8067 125.337 15.11V29.02H134.112C134.416 29.02 134.676 29.15 134.892 29.41C135.109 29.6267 135.217 29.8867 135.217 30.19C135.217 30.4933 135.109 30.7533 134.892 30.97C134.676 31.1867 134.416 31.295 134.112 31.295H125.337V50.665C125.337 53.135 125.879 54.89 126.962 55.93C128.046 56.9267 129.909 57.425 132.552 57.425H134.047C134.351 57.425 134.611 57.5333 134.827 57.75C135.044 57.9667 135.152 58.2267 135.152 58.53C135.152 58.8333 135.044 59.115 134.827 59.375C134.611 59.5917 134.351 59.7 134.047 59.7H132.552C126.226 59.7 123.062 56.6883 123.062 50.665ZM142.17 29.02H148.215C152.201 29.02 155.126 30.0817 156.99 32.205C158.853 34.285 159.785 37.0583 159.785 40.525V58.53C159.785 59.31 159.416 59.7 158.68 59.7C158.376 59.7 158.095 59.5917 157.835 59.375C157.618 59.1583 157.51 58.8767 157.51 58.53V55.15C154.65 58.4433 151.4 60.09 147.76 60.09C145.073 60.09 142.885 59.375 141.195 57.945C139.548 56.4717 138.725 54.3267 138.725 51.51C138.725 48.26 140.003 46.0283 142.56 44.815C145.16 43.5583 148.93 42.93 153.87 42.93H157.51V40.525C157.51 37.8817 156.708 35.6933 155.105 33.96C153.545 32.1833 151.248 31.295 148.215 31.295H142.17C141.866 31.295 141.585 31.1867 141.325 30.97C141.108 30.71 141 30.4283 141 30.125C141 29.3883 141.39 29.02 142.17 29.02ZM157.51 50.665V45.205H153.935C151.985 45.205 150.338 45.27 148.995 45.4C147.695 45.53 146.373 45.8117 145.03 46.245C143.686 46.635 142.668 47.285 141.975 48.195C141.325 49.0617 141 50.1667 141 51.51C141 53.59 141.606 55.1717 142.82 56.255C144.076 57.295 145.701 57.815 147.695 57.815C150.035 57.815 152.245 56.9917 154.325 55.345C156.448 53.6983 157.51 52.1383 157.51 50.665ZM178.464 28.63H180.089C180.782 28.63 181.129 28.9983 181.129 29.735C181.129 30.515 180.782 30.905 180.089 30.905H178.464C176.037 30.905 174.044 32.0317 172.484 34.285C170.967 36.5383 170.209 39.1167 170.209 42.02V58.595C170.209 58.8983 170.079 59.1583 169.819 59.375C169.602 59.5917 169.342 59.7 169.039 59.7C168.736 59.7 168.476 59.5917 168.259 59.375C168.042 59.1583 167.934 58.8983 167.934 58.595V42.02C167.934 38.4667 168.931 35.3467 170.924 32.66C172.961 29.9733 175.474 28.63 178.464 28.63ZM186.382 50.665V15.11C186.382 14.8067 186.491 14.5467 186.707 14.33C186.967 14.1133 187.227 14.005 187.487 14.005C187.791 14.005 188.051 14.1133 188.267 14.33C188.527 14.5467 188.657 14.8067 188.657 15.11V29.02H197.432C197.736 29.02 197.996 29.15 198.212 29.41C198.429 29.6267 198.537 29.8867 198.537 30.19C198.537 30.4933 198.429 30.7533 198.212 30.97C197.996 31.1867 197.736 31.295 197.432 31.295H188.657V50.665C188.657 53.135 189.199 54.89 190.282 55.93C191.366 56.9267 193.229 57.425 195.872 57.425H197.367C197.671 57.425 197.931 57.5333 198.147 57.75C198.364 57.9667 198.472 58.2267 198.472 58.53C198.472 58.8333 198.364 59.115 198.147 59.375C197.931 59.5917 197.671 59.7 197.367 59.7H195.872C189.546 59.7 186.382 56.6883 186.382 50.665ZM215.37 60.09C212.207 60.09 209.477 58.92 207.18 56.58C204.927 54.24 203.8 51.51 203.8 48.39V30.19C203.8 29.8867 203.908 29.6267 204.125 29.41C204.385 29.15 204.667 29.02 204.97 29.02C205.273 29.02 205.533 29.15 205.75 29.41C205.967 29.6267 206.075 29.8867 206.075 30.19V48.39C206.075 50.86 206.985 53.0483 208.805 54.955C210.625 56.8617 212.813 57.815 215.37 57.815C217.883 57.815 220.05 56.8617 221.87 54.955C223.69 53.0483 224.6 50.86 224.6 48.39V30.125C224.6 29.8217 224.708 29.5617 224.925 29.345C225.185 29.1283 225.467 29.02 225.77 29.02C226.073 29.02 226.333 29.1283 226.55 29.345C226.767 29.5617 226.875 29.8217 226.875 30.125V48.39C226.875 51.51 225.727 54.24 223.43 56.58C221.177 58.92 218.49 60.09 215.37 60.09ZM236.434 29.02C237.214 29.02 237.604 29.3883 237.604 30.125V33.57C239.467 30.2767 242.371 28.63 246.314 28.63C249.521 28.63 252.272 29.7783 254.569 32.075C256.866 34.3717 258.014 37.1233 258.014 40.33V48.26C258.014 51.38 256.844 54.1317 254.504 56.515C252.207 58.8983 249.521 60.09 246.444 60.09C244.537 60.09 242.761 59.6133 241.114 58.66C239.511 57.7067 238.341 56.5367 237.604 55.15V73.935C237.604 74.2383 237.474 74.4983 237.214 74.715C236.997 74.975 236.737 75.105 236.434 75.105C236.131 75.105 235.871 74.975 235.654 74.715C235.437 74.4983 235.329 74.2383 235.329 73.935V30.125C235.329 29.3883 235.697 29.02 236.434 29.02ZM255.739 48.26V40.33C255.739 37.9033 254.807 35.7367 252.944 33.83C251.124 31.88 248.979 30.905 246.509 30.905C244.169 30.905 242.089 31.7717 240.269 33.505C238.492 35.2383 237.604 37.5133 237.604 40.33V50.665C237.604 52.0083 238.514 53.5467 240.334 55.28C242.154 56.97 244.234 57.815 246.574 57.815C249.001 57.815 251.124 56.84 252.944 54.89C254.807 52.94 255.739 50.73 255.739 48.26Z" fill="black"/>
</svg>
